<svg id="Portrait" xmlns="http://www.w3.org/2000/svg" width="13.2" height="18.01" viewBox="0 0 13.2 18.01"><title>lock</title><g id="images"><g id="_01a" data-name="01a"><g id="keypad"><g id="Layer0_0_FILL" data-name="Layer0 0 FILL"><path d="M100.46,648.17H99.15v-3.31a3.87,3.87,0,0,0-.32-1.55A4,4,0,0,0,92.36,642a4,4,0,0,0-.86,1.27,3.93,3.93,0,0,0-.31,1.55v3.31H89.89a1.3,1.3,0,0,0-1.31,1.31v8.1a1.31,1.31,0,0,0,1.31,1.31h10.57a1.31,1.31,0,0,0,1.31-1.31v-8.1a1.3,1.3,0,0,0-1.31-1.31m0.31,1a0.42,0.42,0,0,1,.13.31v8.1a0.41,0.41,0,0,1-.13.31,0.43,0.43,0,0,1-.31.13H89.89a0.43,0.43,0,0,1-.31-0.13,0.41,0.41,0,0,1-.13-0.31v-8.1a0.42,0.42,0,0,1,.13-0.31,0.43,0.43,0,0,1,.31-0.13h10.57a0.43,0.43,0,0,1,.31.13M98,643.65a3.06,3.06,0,0,1,.25,1.21v3.31H92.07v-3.31a3.06,3.06,0,0,1,.25-1.21,3,3,0,0,1,.67-1,2.92,2.92,0,0,1,1-.67,3.1,3.1,0,0,1,2.42,0,3,3,0,0,1,1,.67,3,3,0,0,1,.67,1" transform="translate(-88.57 -640.87)"/></g></g></g></g></svg>