<svg id="Portrait" xmlns="http://www.w3.org/2000/svg" width="188.88" height="122.78" viewBox="0 0 188.88 122.78"><defs><style>.cls-1{fill:#fc3;}.cls-2{fill:#fff;}</style></defs><title>Logo</title><g id="images"><g id="_00" data-name="00"><g id="logo"><path class="cls-1" d="M234.72,405.2l8-14.58a30.86,30.86,0,0,1-4.65,3.57c-9.73,6.68-21.71,8.27-33.74,18.17a45,45,0,0,0-11.93,16.45A76.37,76.37,0,0,1,220,410.36c6.68-2.48,11.35-3.84,14.75-5.16" transform="translate(-147.05 -390.61)"/><path class="cls-2" d="M290.61,475.06c0,4.88-.93,13.07-7.17,13.07-5.86,0-7.09-7.11-7.09-13.07S277.59,462,283.44,462c6.23,0,7.17,8.19,7.17,13.07m-7.17-17.72c-10.86,0-17.35,9-17.35,17.72s6.49,17.72,17.35,17.72,17.43-9,17.43-17.72-6.52-17.72-17.43-17.72" transform="translate(-147.05 -390.61)"/><path class="cls-2" d="M335.57,458.3H321l4.64,4.64v13.32l-14.25-18h-11.8l4.64,4.64v24.24l-4.64,4.64h14.81l-4.64-4.64V469.42l21.46,26s0-32.4,0-32.52l4.64-4.64h-0.36Z" transform="translate(-147.05 -390.61)"/><path class="cls-2" d="M230.43,413c-8.72,2.78-19.11,5.43-29.75,12.61-8.29,5.59-13.1,15.14-13.1,15.14S199.26,429,216.25,425l8.69-2Z" transform="translate(-147.05 -390.61)"/><path class="cls-2" d="M217.14,478.38l3.33-8.31,3.18,8.31h-6.51Zm42.4-4.48-8.79-4.73c-2.28-1.33-3.1-2.94-3.1-4a2.55,2.55,0,0,1,.8-1.72,4.57,4.57,0,0,1,3.34-1.38,6.09,6.09,0,0,1,2.45.65s4.54,4.47,4.54,4.47l0.13,0.13,4.94-7.73-9-1.29a19.9,19.9,0,0,0-3.49-.22c-8.17,0-11.89,4.86-11.89,9.38,0,2.65,1.59,6.34,6.06,8.77l8.79,4.73a3.59,3.59,0,0,1,1.84,3.12c0,3.2-2.91,4.36-4.87,4.36a5.36,5.36,0,0,1-3-.86l-5-4.93-0.14-.14-4.08,8-2.8-3.51S225,458.39,225,458.39l0-.09h-5.59L207.78,487l-2.7,3.43-3.68-4.22v-43.9c11.75-9.31,19.34-11.2,19.32-11.2a55.07,55.07,0,0,0-23.1,6.84,65.34,65.34,0,0,0-12,8.85v0h0c-2,3.74-4.75,10-7.46,16.64l-13.45-24.56H147l5.64,5.64v41.54L147,491.7h19.29l-5.73-5.64V453.83l12.6,22.55a110.61,110.61,0,0,0-4,13.08l4.05-4.71s3.29-15.67,16.26-31.06v32.87l-5.64,5.26H218l-4.47-4.47,1.77-4.4h10.13l1.56,4.39-4.47,4.47h16.7l8.4,0.22a24.27,24.27,0,0,0,4,.3c9.54,0,12.93-5.65,12.93-10.49a8.89,8.89,0,0,0-5-8" transform="translate(-147.05 -390.61)"/><path class="cls-2" d="M233,452.53a23.28,23.28,0,0,1-6.1.72c-4.2,0-9.06-2.13-9.06-8.09s4.18-8.23,10-8.23a15.19,15.19,0,0,1,4.77.7l-0.34,3.44a8,8,0,0,0-3.84-1c-3.41,0-6.22,1.42-6.22,5.11,0,3.1,2.19,5,5.27,5a3.67,3.67,0,0,0,1.49-.27v-3.12h-2.46v-3H233v8.77Z" transform="translate(-147.05 -390.61)"/><polygon class="cls-2" points="93.86 46.59 104.98 46.59 104.98 49.58 98.06 49.58 98.06 52.83 104.59 52.83 104.59 55.81 98.06 55.81 98.06 59.38 105.22 59.38 105.22 62.37 93.86 62.37 93.86 46.59"/><path class="cls-2" d="M266.26,450.13c2.55,0,3.57-2.44,3.57-5s-1-5-3.57-5-3.57,2.31-3.57,5,1,5,3.57,5m0-13.2c5.2,0,7.91,3.1,7.91,8.16s-2.76,8.16-7.91,8.16-7.91-3.14-7.91-8.16,2.71-8.16,7.91-8.16" transform="translate(-147.05 -390.61)"/><path class="cls-2" d="M285,443.76h1.11c1.36,0,3.07,0,3.07-1.83,0-1.47-1.47-1.74-3.07-1.74H285v3.57Zm-4.2-6.55h7.5c2.8,0,5.08,1.27,5.08,4a3.69,3.69,0,0,1-3,4v0c1.36,0.36,1.45,1.56,2.24,3.48l1.54,4.29H289.7l-0.9-2.85c-0.86-2.71-1.4-3.39-3-3.39H285V453h-4.2V437.2Z" transform="translate(-147.05 -390.61)"/><path class="cls-2" d="M314.83,452.53a23.29,23.29,0,0,1-6.1.72c-4.2,0-9.06-2.13-9.06-8.09s4.18-8.23,10-8.23a15.18,15.18,0,0,1,4.77.7l-0.34,3.44a8,8,0,0,0-3.84-1c-3.41,0-6.22,1.42-6.22,5.11,0,3.1,2.19,5,5.27,5a3.67,3.67,0,0,0,1.49-.27v-3.12H308.3v-3h6.53v8.77Z" transform="translate(-147.05 -390.61)"/><polygon class="cls-2" points="175.25 46.59 186.37 46.59 186.37 49.58 179.45 49.58 179.45 52.83 185.98 52.83 185.98 55.81 179.45 55.81 179.45 59.38 186.61 59.38 186.61 62.37 175.25 62.37 175.25 46.59"/><path class="cls-2" d="M159.63,509c0,3.06-2,4.43-4.9,4.43s-4.9-1.38-4.9-4.43V502h3v6.43c0,1.47.4,2.72,1.92,2.72s1.92-1.25,1.92-2.72V502h3V509Z" transform="translate(-147.05 -390.61)"/><polygon class="cls-2" points="24.19 111.42 27.98 111.42 31.76 119 31.79 119 31.74 111.42 34.47 111.42 34.47 122.58 30.77 122.58 26.86 114.95 26.83 114.95 26.93 122.58 24.19 122.58 24.19 111.42"/><rect class="cls-2" x="47.26" y="111.42" width="2.98" height="11.17"/><polygon class="cls-2" points="62.32 111.42 65.49 111.42 67.97 120.18 68 120.18 70.5 111.42 73.55 111.42 69.74 122.58 66.06 122.58 62.32 111.42"/><polygon class="cls-2" points="84.64 111.42 92.51 111.42 92.51 113.53 87.61 113.53 87.61 115.83 92.24 115.83 92.24 117.94 87.61 117.94 87.61 120.47 92.69 120.47 92.69 122.58 84.64 122.58 84.64 111.42"/><path class="cls-2" d="M254.47,506.67h0.78c1,0,2.18,0,2.18-1.3,0-1-1-1.23-2.18-1.23h-0.78v2.53Zm-3-4.64h5.31c2,0,3.6.9,3.6,2.82a2.61,2.61,0,0,1-2.14,2.82v0c1,0.26,1,1.1,1.58,2.46l1.09,3h-3.1l-0.64-2c-0.61-1.92-1-2.4-2.1-2.4h-0.62v4.42h-3V502Z" transform="translate(-147.05 -390.61)"/><path class="cls-2" d="M271.75,510.44a6.54,6.54,0,0,0,3.07.74c0.94,0,1.84-.19,1.84-1.09,0-2.08-5.28-.77-5.28-4.83,0-2.69,2.62-3.42,4.86-3.42a9.47,9.47,0,0,1,2.88.42l-0.19,2.3a6,6,0,0,0-2.48-.51c-0.75,0-2,.06-2,1,0,1.81,5.28.59,5.28,4.62,0,2.9-2.43,3.68-4.91,3.68a11.71,11.71,0,0,1-3.33-.48Z" transform="translate(-147.05 -390.61)"/><rect class="cls-2" x="143.87" y="111.42" width="2.98" height="11.17"/><polygon class="cls-2" points="161.26 113.62 158.51 113.62 158.51 111.42 166.99 111.42 166.99 113.62 164.24 113.62 164.24 122.58 161.26 122.58 161.26 113.62"/><polygon class="cls-2" points="179.63 118.38 175.5 111.42 178.92 111.42 181.11 115.89 183.27 111.42 186.7 111.42 182.6 118.38 182.6 122.58 179.63 122.58 179.63 118.38"/></g></g></g></svg>