<svg id="Portrait" xmlns="http://www.w3.org/2000/svg" width="17.68" height="18.01" viewBox="0 0 17.68 18.01"><title>unlock</title><g id="images"><g id="_01b" data-name="01b"><g id="keypad"><g id="Layer0_0_FILL" data-name="Layer0 0 FILL"><path d="M98.63,643.31a3.87,3.87,0,0,0-.32,1.55v3.31H89.91a1.3,1.3,0,0,0-1.31,1.31v8.1a1.31,1.31,0,0,0,1.31,1.31h10.57a1.31,1.31,0,0,0,1.31-1.31v-8.1a1.3,1.3,0,0,0-1.31-1.31H99.19v-3.31a3.06,3.06,0,0,1,.25-1.21,3,3,0,0,1,.67-1,3,3,0,0,1,1-.67,3.1,3.1,0,0,1,2.42,0,2.92,2.92,0,0,1,1,.67,3,3,0,0,1,.67,1,3.06,3.06,0,0,1,.25,1.21v3.45a0.43,0.43,0,0,0,.13.31,0.42,0.42,0,0,0,.31.13,0.44,0.44,0,0,0,.31-0.13,0.43,0.43,0,0,0,.13-0.31v-3.45a3.93,3.93,0,0,0-.31-1.55,4,4,0,0,0-2.12-2.12,4,4,0,0,0-3.09,0,4,4,0,0,0-2.12,2.12m2.16,5.86a0.42,0.42,0,0,1,.13.31v8.1a0.41,0.41,0,0,1-.13.31,0.43,0.43,0,0,1-.31.13H89.91a0.43,0.43,0,0,1-.31-0.13,0.41,0.41,0,0,1-.13-0.31v-8.1a0.42,0.42,0,0,1,.13-0.31,0.43,0.43,0,0,1,.31-0.13h10.57a0.43,0.43,0,0,1,.31.13" transform="translate(-88.6 -640.87)"/></g></g></g></g></svg>